<svg width="664" height="749" viewBox="0 0 664 749" fill="none" xmlns="http://www.w3.org/2000/svg">
<path d="M609.027 152.795L339.592 0V191.963L439.447 247.916L609.027 152.795Z" fill="white"/>
<path d="M328.832 192.392V1.29102L6.02637 185.076L171.733 281.056L328.832 192.392Z" fill="white"/>
<path d="M0 561.253V196.697L168.721 293.969V464.411L0 561.253Z" fill="white"/>
<path d="M329.263 748.911L6.02637 568.569L176.468 470.438L329.263 559.102V748.911Z" fill="white"/>
<path d="M340.022 748.478L663.259 568.137L492.817 470.004L340.022 558.668V748.478Z" fill="white"/>
<path d="M329.261 384.785V521.225L207.025 450.637L329.261 384.785Z" fill="white"/>
<path d="M337.439 384.785V521.225L459.675 450.637L337.439 384.785Z" fill="white"/>
<path d="M316.78 377.899L201.861 445.904V311.186L316.78 377.899Z" fill="white"/>
<path d="M329.263 372.734L201.432 299.565L329.263 230.699V372.734Z" fill="white"/>
</svg>
